<svg width="26" height="31" viewBox="0 0 26 31" fill="none" xmlns="http://www.w3.org/2000/svg">
<path d="M7.75 15.2039L7.75 6.06254C7.75 3.26659 10.0166 1.00004 12.8125 1.00004V1.00004C15.6084 1.00004 17.875 3.2666 17.875 6.06254L17.875 15.2039" stroke="black" stroke-width="1.5" stroke-linecap="round"/>
<path d="M2.06171 13.6092C2.18059 11.8402 2.24004 10.9557 2.81663 10.4166C3.39322 9.87744 4.27971 9.87744 6.05271 9.87744H19.5723C21.3453 9.87744 22.2318 9.87744 22.8084 10.4166C23.385 10.9557 23.4444 11.8402 23.5633 13.6092L24.4816 27.2736C24.5488 28.2736 24.5824 28.7737 24.286 29.0907C23.9895 29.4077 23.4884 29.4077 22.4861 29.4077H3.13892C2.13661 29.4077 1.63545 29.4077 1.33903 29.0907C1.04261 28.7737 1.07621 28.2736 1.14342 27.2736L2.06171 13.6092Z" stroke="black" stroke-width="1.5"/>
</svg>
